ffmpeg version 4.4.2-0ubuntu0.22.04.1 Copyright (c) 2000-2021 the FFmpeg developers
  built with gcc 11 (Ubuntu 11.2.0-19ubuntu1)
  configuration: --prefix=/usr --extra-version=0ubuntu0.22.04.1 --toolchain=hardened --libdir=/usr/lib/x86_64-linux-gnu --incdir=/usr/include/x86_64-linux-gnu --arch=amd64 --enable-gpl --disable-stripping --enable-gnutls --enable-ladspa --enable-libaom --enable-libass --enable-libbluray --enable-libbs2b --enable-libcaca --enable-libcdio --enable-libcodec2 --enable-libdav1d --enable-libflite --enable-libfontconfig --enable-libfreetype --enable-libfribidi --enable-libgme --enable-libgsm --enable-libjack --enable-libmp3lame --enable-libmysofa --enable-libopenjpeg --enable-libopenmpt --enable-libopus --enable-libpulse --enable-librabbitmq --enable-librubberband --enable-libshine --enable-libsnappy --enable-libsoxr --enable-libspeex --enable-libsrt --enable-libssh --enable-libtheora --enable-libtwolame --enable-libvidstab --enable-libvorbis --enable-libvpx --enable-libwebp --enable-libx265 --enable-libxml2 --enable-libxvid --enable-libzimg --enable-libzmq --enable-libzvbi --enable-lv2 --enable-omx --enable-openal --enable-opencl --enable-opengl --enable-sdl2 --enable-pocketsphinx --enable-librsvg --enable-libmfx --enable-libdc1394 --enable-libdrm --enable-libiec61883 --enable-chromaprint --enable-frei0r --enable-libx264 --enable-shared
  libavutil      56. 70.100 / 56. 70.100
  libavcodec     58.134.100 / 58.134.100
  libavformat    58. 76.100 / 58. 76.100
  libavdevice    58. 13.100 / 58. 13.100
  libavfilter     7.110.100 /  7.110.100
  libswscale      5.  9.100 /  5.  9.100
  libswresample   3.  9.100 /  3.  9.100
  libpostproc    55.  9.100 / 55.  9.100
Input #0, flv, from '/storage/32426326/20250605/32426326-20250605-150923-021.flv':
  Metadata:
    level           : 
    displayHeight   : 1080
    Rawdata         : 
    fps             : 60
    displayWidth    : 1920
    profile         : 
    encoder         : obs-output module (libobs version 31.0.2)
    cdn_ip          : 156.59.188.242
    Title           : 技术主播没有GG
    Artist          : 蓝音BuBuLine (32426326)
    Comment         : mikufans直播间 32426326 的直播录像
                    : 主播名: 蓝音BuBuLine
                    : 直播标题: 技术主播没有GG
                    : 直播分区: 单机游戏·主机游戏
                    : 录制时间: 2025-06-05T15:09:23.1325478+00:00
                    : 直播服务器:
                    : d1--ov-gotcha07b.bilivideo.com [156.59.188.242]
                    : 
                    : 使用 mikufans录播姬 录制 https://rec.danmuji.org
                    : 录播姬版本: 2.11.0
    RecordedBy      : BililiveRecorder mikufans录播姬
    RecordedFrom    : d1--ov-gotcha07b.bilivideo.com
    StreamServers   : d1--ov-gotcha07b.bilivideo.com [156.59.188.242]
    RecorderVersion : 2.11.0+Branch.tags-v2.11.0.Sha.d32ebb97483b1ae77acfc6dbcfef17bd64913ccd
    StartTime       : Thu, 05 Jun 2025 15:09:23 +0000
    RoomId          : 32426326
    ShortId         : 0
    Name            : 蓝音BuBuLine
    StreamTitle     : 技术主播没有GG
    AreaNameParent  : 单机游戏
    AreaNameChild   : 主机游戏
  Duration: 06:20:21.01, start: 0.035000, bitrate: 6191 kb/s
  Stream #0:0: Video: h264 (High), yuv420p(tv, bt709, progressive), 1920x1080 [SAR 1:1 DAR 16:9], 8192 kb/s, 60 fps, 60 tbr, 1k tbn, 120 tbc
  Stream #0:1: Audio: aac (LC), 48000 Hz, stereo, fltp, 131 kb/s
Stream mapping:
  Stream #0:0 -> #0:0 (h264 (native) -> png (native))
Press [q] to stop, [?] for help
Output #0, image2, to '/storage/32426326/20250605/32426326-20250605-150923-021.all.thumb.png':
  Metadata:
    level           : 
    displayHeight   : 1080
    Rawdata         : 
    fps             : 60
    displayWidth    : 1920
    profile         : 
    AreaNameChild   : 主机游戏
    cdn_ip          : 156.59.188.242
    Title           : 技术主播没有GG
    Artist          : 蓝音BuBuLine (32426326)
    Comment         : mikufans直播间 32426326 的直播录像
                    : 主播名: 蓝音BuBuLine
                    : 直播标题: 技术主播没有GG
                    : 直播分区: 单机游戏·主机游戏
                    : 录制时间: 2025-06-05T15:09:23.1325478+00:00
                    : 直播服务器:
                    : d1--ov-gotcha07b.bilivideo.com [156.59.188.242]
                    : 
                    : 使用 mikufans录播姬 录制 https://rec.danmuji.org
                    : 录播姬版本: 2.11.0
    RecordedBy      : BililiveRecorder mikufans录播姬
    RecordedFrom    : d1--ov-gotcha07b.bilivideo.com
    StreamServers   : d1--ov-gotcha07b.bilivideo.com [156.59.188.242]
    RecorderVersion : 2.11.0+Branch.tags-v2.11.0.Sha.d32ebb97483b1ae77acfc6dbcfef17bd64913ccd
    StartTime       : Thu, 05 Jun 2025 15:09:23 +0000
    RoomId          : 32426326
    ShortId         : 0
    Name            : 蓝音BuBuLine
    StreamTitle     : 技术主播没有GG
    AreaNameParent  : 单机游戏
    encoder         : Lavf58.76.100
  Stream #0:0: Video: png, rgb24(pc, gbr/bt709/bt709, progressive), 1920x1080 [SAR 1:1 DAR 16:9], q=2-31, 200 kb/s, 60 fps, 60 tbn
    Metadata:
      encoder         : Lavc58.134.100 png
frame=    1 fps=0.0 q=0.0 size=N/A time=00:00:00.00 bitrate=N/A speed=   0x    frame=    1 fps=0.0 q=-0.0 Lsize=N/A time=00:00:00.01 bitrate=N/A speed=0.0627x    
video:411kB audio:0kB subtitle:0kB other streams:0kB global headers:0kB muxing overhead: unknown
ffmpeg version 4.4.2-0ubuntu0.22.04.1 Copyright (c) 2000-2021 the FFmpeg developers
  built with gcc 11 (Ubuntu 11.2.0-19ubuntu1)
  configuration: --prefix=/usr --extra-version=0ubuntu0.22.04.1 --toolchain=hardened --libdir=/usr/lib/x86_64-linux-gnu --incdir=/usr/include/x86_64-linux-gnu --arch=amd64 --enable-gpl --disable-stripping --enable-gnutls --enable-ladspa --enable-libaom --enable-libass --enable-libbluray --enable-libbs2b --enable-libcaca --enable-libcdio --enable-libcodec2 --enable-libdav1d --enable-libflite --enable-libfontconfig --enable-libfreetype --enable-libfribidi --enable-libgme --enable-libgsm --enable-libjack --enable-libmp3lame --enable-libmysofa --enable-libopenjpeg --enable-libopenmpt --enable-libopus --enable-libpulse --enable-librabbitmq --enable-librubberband --enable-libshine --enable-libsnappy --enable-libsoxr --enable-libspeex --enable-libsrt --enable-libssh --enable-libtheora --enable-libtwolame --enable-libvidstab --enable-libvorbis --enable-libvpx --enable-libwebp --enable-libx265 --enable-libxml2 --enable-libxvid --enable-libzimg --enable-libzmq --enable-libzvbi --enable-lv2 --enable-omx --enable-openal --enable-opencl --enable-opengl --enable-sdl2 --enable-pocketsphinx --enable-librsvg --enable-libmfx --enable-libdc1394 --enable-libdrm --enable-libiec61883 --enable-chromaprint --enable-frei0r --enable-libx264 --enable-shared
  libavutil      56. 70.100 / 56. 70.100
  libavcodec     58.134.100 / 58.134.100
  libavformat    58. 76.100 / 58. 76.100
  libavdevice    58. 13.100 / 58. 13.100
  libavfilter     7.110.100 /  7.110.100
  libswscale      5.  9.100 /  5.  9.100
  libswresample   3.  9.100 /  3.  9.100
  libpostproc    55.  9.100 / 55.  9.100
[flv @ 0x55f01e588fc0] Auto-inserting h264_mp4toannexb bitstream filter
Input #0, concat, from '/storage/32426326/20250605/32426326-20250605-150923-021.all.concat.txt':
  Duration: N/A, start: 0.000000, bitrate: 8323 kb/s
  Stream #0:0: Video: h264 (High), yuv420p(tv, bt709, progressive), 1920x1080 [SAR 1:1 DAR 16:9], 8192 kb/s, 60 fps, 60 tbr, 1k tbn, 120 tbc
  Stream #0:1: Audio: aac (LC), 48000 Hz, stereo, fltp, 131 kb/s
Output #0, flv, to '/storage/32426326/20250605/32426326-20250605-150923-021.all.flv':
  Metadata:
    encoder         : Lavf58.76.100
  Stream #0:0: Video: h264 (High) ([7][0][0][0] / 0x0007), yuv420p(tv, bt709, progressive), 1920x1080 [SAR 1:1 DAR 16:9], q=2-31, 8192 kb/s, 60 fps, 60 tbr, 1k tbn, 1k tbc
  Stream #0:1: Audio: aac (LC) ([10][0][0][0] / 0x000A), 48000 Hz, stereo, fltp, 131 kb/s
Stream mapping:
  Stream #0:0 -> #0:0 (copy)
  Stream #0:1 -> #0:1 (copy)
Press [q] to stop, [?] for help
frame=    1 fps=0.0 q=-1.0 size=       0kB time=00:00:00.00 bitrate=N/A speed=N/A    frame= 3620 fps=0.0 q=-1.0 size=   35584kB time=00:01:00.41 bitrate=4825.1kbits/s speed= 121x    frame= 5779 fps=5774 q=-1.0 size=   71168kB time=00:01:36.40 bitrate=6047.4kbits/s speed=96.3x    frame= 8139 fps=5414 q=-1.0 size=  109312kB time=00:02:15.73 bitrate=6597.5kbits/s speed=90.3x    frame=10497 fps=5239 q=-1.0 size=  148224kB time=00:02:55.03 bitrate=6937.3kbits/s speed=87.4x    frame=12997 fps=5190 q=-1.0 size=  189696kB time=00:03:36.69 bitrate=7171.3kbits/s speed=86.5x    frame=15369 fps=5115 q=-1.0 size=  229120kB time=00:04:16.23 bitrate=7325.1kbits/s speed=85.3x    frame=17903 fps=5108 q=-1.0 size=  271104kB time=00:04:58.47 bitrate=7440.7kbits/s speed=85.2x    frame=20387 fps=5090 q=-1.0 size=  312064kB time=00:05:39.86 bitrate=7521.9kbits/s speed=84.9x    frame=22874 fps=5077 q=-1.0 size=  353536kB time=00:06:21.31 bitrate=7595.2kbits/s speed=84.6x    frame=25395 fps=5073 q=-1.0 size=  395264kB time=00:07:03.33 bitrate=7648.9kbits/s speed=84.6x    frame=27844 fps=5057 q=-1.0 size=  435712kB time=00:07:44.14 bitrate=7690.1kbits/s speed=84.3x    frame=30441 fps=5068 q=-1.0 size=  478720kB time=00:08:27.43 bitrate=7728.5kbits/s speed=84.5x    frame=33089 fps=5086 q=-1.0 size=  522496kB time=00:09:11.56 bitrate=7760.3kbits/s speed=84.8x    frame=35686 fps=5093 q=-1.0 size=  565504kB time=00:09:54.86 bitrate=7787.7kbits/s speed=84.9x    frame=38291 fps=5101 q=-1.0 size=  608768kB time=00:10:38.27 bitrate=7813.3kbits/s speed=  85x    frame=40764 fps=5091 q=-1.0 size=  649728kB time=00:11:19.48 bitrate=7833.3kbits/s speed=84.9x    frame=43342 fps=5094 q=-1.0 size=  692224kB time=00:12:02.45 bitrate=7849.2kbits/s speed=84.9x    frame=45878 fps=5093 q=-1.0 size=  734464kB time=00:12:44.71 bitrate=7867.9kbits/s speed=84.9x    frame=48375 fps=5088 q=-1.0 size=  774656kB time=00:13:26.33 bitrate=7870.2kbits/s speed=84.8x    frame=51092 fps=5105 q=-1.0 size=  819712kB time=00:14:11.62 bitrate=7885.0kbits/s speed=85.1x    frame=53795 fps=5119 q=-1.0 size=  864256kB time=00:14:56.66 bitrate=7895.9kbits/s speed=85.3x    frame=56369 fps=5120 q=-1.0 size=  907264kB time=00:15:39.56 bitrate=7910.4kbits/s speed=85.3x    frame=59517 fps=5171 q=-1.0 size=  957952kB time=00:16:32.04 bitrate=7910.5kbits/s speed=86.2x    frame=62120 fps=5172 q=-1.0 size= 1000960kB time=00:17:15.41 bitrate=7919.4kbits/s speed=86.2x    frame=64392 fps=5147 q=-1.0 size= 1038848kB time=00:17:53.28 bitrate=7929.2kbits/s speed=85.8x    frame=67027 fps=5152 q=-1.0 size= 1082368kB time=00:18:37.20 bitrate=7936.5kbits/s speed=85.9x    frame=69340 fps=5132 q=-1.0 size= 1120768kB time=00:19:15.74 bitrate=7944.1kbits/s speed=85.5x    frame=71703 fps=5117 q=-1.0 size= 1159936kB time=00:19:55.13 bitrate=7950.8kbits/s speed=85.3x    frame=74744 fps=5151 q=-1.0 size= 1209088kB time=00:20:45.81 bitrate=7950.5kbits/s speed=85.8x    frame=77388 fps=5155 q=-1.0 size= 1252864kB time=00:21:29.88 bitrate=7956.9kbits/s speed=85.9x    frame=79928 fps=5153 q=-1.0 size= 1295104kB time=00:22:12.21 bitrate=7963.8kbits/s speed=85.9x    frame=82414 fps=5147 q=-1.0 size= 1336320kB time=00:22:53.64 bitrate=7969.4kbits/s speed=85.8x    frame=84728 fps=5131 q=-1.0 size= 1374464kB time=00:23:32.22 bitrate=7973.0kbits/s speed=85.5x    frame=87189 fps=5125 q=-1.0 size= 1415424kB time=00:24:13.23 bitrate=7978.9kbits/s speed=85.4x    frame=89624 fps=5118 q=-1.0 size= 1455872kB time=00:24:53.81 bitrate=7983.9kbits/s speed=85.3x    frame=92130 fps=5114 q=-1.0 size= 1497344kB time=00:25:35.58 bitrate=7988.0kbits/s speed=85.2x    frame=94656 fps=5113 q=-1.0 size= 1539072kB time=00:26:17.68 bitrate=7991.5kbits/s speed=85.2x    frame=97084 fps=5106 q=-1.0 size= 1579264kB time=00:26:58.14 bitrate=7995.2kbits/s speed=85.1x    frame=99574 fps=5102 q=-1.0 size= 1620480kB time=00:27:39.65 bitrate=7998.7kbits/s speed=  85x    frame=102055 fps=5099 q=-1.0 size= 1661696kB time=00:28:20.99 bitrate=8002.7kbits/s speed=  85x    frame=104267 fps=5082 q=-1.0 size= 1698304kB time=00:28:57.86 bitrate=8005.5kbits/s speed=84.7x    frame=106715 fps=5078 q=-1.0 size= 1738752kB time=00:29:38.66 bitrate=8008.2kbits/s speed=84.6x    frame=109325 fps=5080 q=-1.0 size= 1778688kB time=00:30:22.16 bitrate=7996.5kbits/s speed=84.7x    frame=111595 fps=5068 q=-1.0 size= 1816320kB time=00:31:00.01 bitrate=7999.6kbits/s speed=84.5x    frame=114221 fps=5072 q=-1.0 size= 1858304kB time=00:31:43.76 bitrate=7996.4kbits/s speed=84.5x    frame=116587 fps=5064 q=-1.0 size= 1897728kB time=00:32:23.21 bitrate=8000.3kbits/s speed=84.4x    frame=119058 fps=5062 q=-1.0 size= 1938688kB time=00:33:04.38 bitrate=8003.4kbits/s speed=84.4x    frame=121565 fps=5061 q=-1.0 size= 1980160kB time=00:33:46.17 bitrate=8005.9kbits/s speed=84.3x    frame=124023 fps=5058 q=-1.0 size= 2020864kB time=00:34:27.13 bitrate=8008.6kbits/s speed=84.3x    frame=126503 fps=5056 q=-1.0 size= 2062080kB time=00:35:08.46 bitrate=8011.8kbits/s speed=84.3x    frame=129057 fps=5057 q=-1.0 size= 2104320kB time=00:35:51.03 bitrate=8014.1kbits/s speed=84.3x    frame=131259 fps=5044 q=-1.0 size= 2140928kB time=00:36:27.73 bitrate=8016.7kbits/s speed=84.1x    frame=133860 fps=5047 q=-1.0 size= 2183680kB time=00:37:11.08 bitrate=8017.9kbits/s speed=84.1x    frame=136228 fps=5041 q=-1.0 size= 2223104kB time=00:37:50.54 bitrate=8020.8kbits/s speed=  84x    frame=138577 fps=5035 q=-1.0 size= 2262016kB time=00:38:29.69 bitrate=8022.9kbits/s speed=83.9x    frame=141048 fps=5033 q=-1.0 size= 2302976kB time=00:39:10.88 bitrate=8025.1kbits/s speed=83.9x    frame=143599 fps=5034 q=-1.0 size= 2345216kB time=00:39:53.39 bitrate=8027.1kbits/s speed=83.9x    frame=146203 fps=5037 q=-1.0 size= 2388224kB time=00:40:36.79 bitrate=8028.7kbits/s speed=  84x    frame=148833 fps=5041 q=-1.0 size= 2431744kB time=00:41:20.64 bitrate=8030.5kbits/s speed=  84x    frame=151364 fps=5041 q=-1.0 size= 2472448kB time=00:42:02.81 bitrate=8028.5kbits/s speed=  84x    frame=153973 fps=5044 q=-1.0 size= 2515456kB time=00:42:46.29 bitrate=8029.7kbits/s speed=84.1x    frame=156532 fps=5045 q=-1.0 size= 2557952kB time=00:43:28.96 bitrate=8031.8kbits/s speed=84.1x    frame=159127 fps=5048 q=-1.0 size= 2601216kB time=00:44:12.20 bitrate=8034.5kbits/s speed=84.1x    frame=161617 fps=5047 q=-1.0 size= 2642176kB time=00:44:53.69 bitrate=8035.3kbits/s speed=84.1x    frame=164148 fps=5047 q=-1.0 size= 2684416kB time=00:45:35.88 bitrate=8037.9kbits/s speed=84.1x    frame=166502 fps=5042 q=-1.0 size= 2723328kB time=00:46:15.12 bitrate=8039.1kbits/s speed=  84x    frame=169084 fps=5043 q=-1.0 size= 2766080kB time=00:46:58.15 bitrate=8040.6kbits/s speed=84.1x    frame=171437 fps=5038 q=-1.0 size= 2804992kB time=00:47:37.36 bitrate=8041.9kbits/s speed=  84x    frame=173879 fps=5036 q=-1.0 size= 2845696kB time=00:48:18.07 bitrate=8044.0kbits/s speed=83.9x    frame=176484 fps=5038 q=-1.0 size= 2888704kB time=00:49:01.48 bitrate=8045.0kbits/s speed=  84x    frame=178737 fps=5031 q=-1.0 size= 2925824kB time=00:49:39.03 bitrate=8045.7kbits/s speed=83.9x    frame=181250 fps=5031 q=-1.0 size= 2967552kB time=00:50:20.91 bitrate=8047.3kbits/s speed=83.8x    frame=183785 fps=5031 q=-1.0 size= 3009536kB time=00:51:03.17 bitrate=8048.6kbits/s speed=83.9x    frame=186269 fps=5030 q=-1.0 size= 3050752kB time=00:51:44.56 bitrate=8050.0kbits/s speed=83.8x    frame=188888 fps=5033 q=-1.0 size= 3094272kB time=00:52:28.22 bitrate=8051.6kbits/s speed=83.9x    frame=191246 fps=5029 q=-1.0 size= 3133184kB time=00:53:07.51 bitrate=8052.4kbits/s speed=83.8x    frame=193843 fps=5031 q=-1.0 size= 3173888kB time=00:53:50.79 bitrate=8047.7kbits/s speed=83.9x    frame=196370 fps=5031 q=-1.0 size= 3215872kB time=00:54:32.91 bitrate=8049.2kbits/s speed=83.9x    frame=198693 fps=5026 q=-1.0 size= 3254272kB time=00:55:11.63 bitrate=8050.1kbits/s speed=83.8x    frame=201241 fps=5027 q=-1.0 size= 3296512kB time=00:55:54.09 bitrate=8051.4kbits/s speed=83.8x    frame=203758 fps=5027 q=-1.0 size= 3338240kB time=00:56:36.05 bitrate=8052.5kbits/s speed=83.8x    frame=205966 fps=5020 q=-1.0 size= 3374848kB time=00:57:12.85 bitrate=8053.6kbits/s speed=83.7x    frame=208271 fps=5015 q=-1.0 size= 3412992kB time=00:57:51.26 bitrate=8054.5kbits/s speed=83.6x    frame=210660 fps=5012 q=-1.0 size= 3452672kB time=00:58:31.08 bitrate=8055.7kbits/s speed=83.5x    frame=212928 fps=5006 q=-1.0 size= 3490048kB time=00:59:08.88 bitrate=8056.2kbits/s speed=83.4x    frame=215442 fps=5006 q=-1.0 size= 3531776kB time=00:59:50.78 bitrate=8057.4kbits/s speed=83.4x    frame=217733 fps=5001 q=-1.0 size= 3569664kB time=01:00:28.97 bitrate=8058.1kbits/s speed=83.4x    frame=220119 fps=4999 q=-1.0 size= 3609344kB time=01:01:08.73 bitrate=8059.4kbits/s speed=83.3x    frame=222619 fps=4999 q=-1.0 size= 3650816kB time=01:01:50.40 bitrate=8060.4kbits/s speed=83.3x    frame=224870 fps=4993 q=-1.0 size= 3687936kB time=01:02:27.91 bitrate=8060.9kbits/s speed=83.2x    frame=227351 fps=4993 q=-1.0 size= 3728896kB time=01:03:09.27 bitrate=8061.5kbits/s speed=83.2x    frame=229811 fps=4992 q=-1.0 size= 3769600kB time=01:03:50.27 bitrate=8062.2kbits/s speed=83.2x    frame=232155 fps=4989 q=-1.0 size= 3808512kB time=01:04:29.33 bitrate=8063.2kbits/s speed=83.1x    frame=236356 fps=5025 q=-1.0 size= 3848448kB time=01:05:39.34 bitrate=8003.0kbits/s speed=83.8x    frame=241603 fps=5082 q=-1.0 size= 3887104kB time=01:07:06.79 bitrate=7907.8kbits/s speed=84.7x    frame=247945 fps=5161 q=-1.0 size= 3925760kB time=01:08:52.49 bitrate=7782.2kbits/s speed=  86x    frame=251704 fps=5186 q=-1.0 size= 3967232kB time=01:09:55.14 bitrate=7746.9kbits/s speed=86.4x    frame=254783 fps=5196 q=-1.0 size= 4003328kB time=01:10:46.46 bitrate=7723.0kbits/s speed=86.6x    frame=258172 fps=5212 q=-1.0 size= 4043264kB time=01:11:42.94 bitrate=7697.6kbits/s speed=86.9x    frame=261596 fps=5228 q=-1.0 size= 4083968kB time=01:12:40.02 bitrate=7673.3kbits/s speed=87.1x    frame=264800 fps=5239 q=-1.0 size= 4119040kB time=01:13:33.41 bitrate=7645.6kbits/s speed=87.3x    frame=268036 fps=5251 q=-1.0 size= 4158976kB time=01:14:27.34 bitrate=7626.5kbits/s speed=87.5x    frame=271608 fps=5270 q=-1.0 size= 4199168kB time=01:15:26.89 bitrate=7598.9kbits/s speed=87.8x    frame=275128 fps=5287 q=-1.0 size= 4234752kB time=01:16:25.55 bitrate=7565.3kbits/s speed=88.1x    frame=278127 fps=5294 q=-1.0 size= 4276736kB time=01:17:15.54 bitrate=7557.9kbits/s speed=88.2x    frame=281012 fps=5298 q=-1.0 size= 4316160kB time=01:18:03.61 bitrate=7549.3kbits/s speed=88.3x    frame=283958 fps=5303 q=-1.0 size= 4356352kB time=01:18:52.71 bitrate=7540.5kbits/s speed=88.4x    frame=286635 fps=5304 q=-1.0 size= 4396800kB time=01:19:37.34 bitrate=7539.5kbits/s speed=88.4x    frame=289112 fps=5301 q=-1.0 size= 4433664kB time=01:20:18.61 bitrate=7537.6kbits/s speed=88.3x    frame=292477 fps=5314 q=-1.0 size= 4473856kB time=01:21:14.69 bitrate=7518.4kbits/s speed=88.6x    frame=296914 fps=5346 q=-1.0 size= 4513792kB time=01:22:28.65 bitrate=7472.1kbits/s speed=89.1x    frame=299679 fps=5347 q=-1.0 size= 4553216kB time=01:23:14.73 bitrate=7467.9kbits/s speed=89.1x    frame=302612 fps=5352 q=-1.0 size= 4595200kB time=01:24:03.62 bitrate=7463.7kbits/s speed=89.2x    frame=305290 fps=5352 q=-1.0 size= 4634368kB time=01:24:48.25 bitrate=7461.2kbits/s speed=89.2x    frame=307729 fps=5348 q=-1.0 size= 4671232kB time=01:25:28.89 bitrate=7461.0kbits/s speed=89.1x    frame=311712 fps=5370 q=-1.0 size= 4711168kB time=01:26:35.28 bitrate=7428.6kbits/s speed=89.5x    frame=314515 fps=5372 q=-1.0 size= 4748032kB time=01:27:22.00 bitrate=7420.0kbits/s speed=89.5x    frame=317073 fps=5370 q=-1.0 size= 4783872kB time=01:28:04.63 bitrate=7415.7kbits/s speed=89.5x    frame=319768 fps=5370 q=-1.0 size= 4824320kB time=01:28:49.55 bitrate=7415.4kbits/s speed=89.5x    frame=322575 fps=5372 q=-1.0 size= 4864000kB time=01:29:36.34 bitrate=7411.3kbits/s speed=89.5x    frame=325253 fps=5372 q=-1.0 size= 4905216kB time=01:30:20.97 bitrate=7412.6kbits/s speed=89.5x    frame=327802 fps=5370 q=-1.0 size= 4945408kB time=01:31:03.44 bitrate=7415.2kbits/s speed=89.5x    frame=331748 fps=5390 q=-1.0 size= 4981760kB time=01:32:09.21 bitrate=7380.9kbits/s speed=89.8x    frame=336020 fps=5416 q=-1.0 size= 5023488kB time=01:33:20.41 bitrate=7348.1kbits/s speed=90.3x    frame=339648 fps=5430 q=-1.0 size= 5063168kB time=01:34:20.88 bitrate=7327.0kbits/s speed=90.5x    frame=343007 fps=5440 q=-1.0 size= 5103104kB time=01:35:16.86 bitrate=7312.5kbits/s speed=90.7x    frame=349565 fps=5501 q=-1.0 size= 5140224kB time=01:37:06.16 bitrate=7227.5kbits/s speed=91.7x    frame=357095 fps=5575 q=-1.0 size= 5176064kB time=01:39:11.66 bitrate=7124.4kbits/s speed=92.9x    frame=362463 fps=5615 q=-1.0 size= 5215488kB time=01:40:41.13 bitrate=7072.4kbits/s speed=93.6x    frame=370992 fps=5703 q=-1.0 size= 5250048kB time=01:43:03.28 bitrate=6955.6kbits/s speed=95.1x    frame=376463 fps=5743 q=-1.0 size= 5286912kB time=01:44:34.47 bitrate=6902.6kbits/s speed=95.7x    frame=380288 fps=5758 q=-1.0 size= 5327360kB time=01:45:38.21 bitrate=6885.5kbits/s speed=  96x    frame=383958 fps=5769 q=-1.0 size= 5364480kB time=01:46:39.38 bitrate=6867.2kbits/s speed=96.2x    frame=387465 fps=5779 q=-1.0 size= 5404928kB time=01:47:37.83 bitrate=6856.3kbits/s speed=96.3x    frame=391067 fps=5789 q=-1.0 size= 5446144kB time=01:48:37.86 bitrate=6845.0kbits/s speed=96.5x    frame=394343 fps=5795 q=-1.0 size= 5485056kB time=01:49:32.46 bitrate=6836.6kbits/s speed=96.6x    frame=397823 fps=5803 q=-1.0 size= 5526016kB time=01:50:30.46 bitrate=6827.4kbits/s speed=96.7x    frame=401298 fps=5812 q=-1.0 size= 5566976kB time=01:51:28.38 bitrate=6818.5kbits/s speed=96.9x    frame=405348 fps=5828 q=-1.0 size= 5603840kB time=01:52:35.88 bitrate=6795.1kbits/s speed=97.1x    frame=409076 fps=5840 q=-1.0 size= 5644800kB time=01:53:38.01 bitrate=6782.4kbits/s speed=97.3x    frame=413859 fps=5866 q=-1.0 size= 5684736kB time=01:54:57.73 bitrate=6751.4kbits/s speed=97.8x    frame=419114 fps=5899 q=-1.0 size= 5723904kB time=01:56:25.32 bitrate=6712.7kbits/s speed=98.3x    frame=423528 fps=5919 q=-1.0 size= 5765888kB time=01:57:38.88 bitrate=6691.5kbits/s speed=98.7x    frame=429143 fps=5956 q=-1.0 size= 5803264kB time=01:59:12.46 bitrate=6646.7kbits/s speed=99.3x    frame=433672 fps=5977 q=-1.0 size= 5840640kB time=02:00:27.94 bitrate=6619.7kbits/s speed=99.6x    frame=436440 fps=5974 q=-1.0 size= 5883392kB time=02:01:14.08 bitrate=6625.8kbits/s speed=99.6x    frame=439536 fps=5976 q=-1.0 size= 5923072kB time=02:02:05.68 bitrate=6623.5kbits/s speed=99.6x    frame=442934 fps=5981 q=-1.0 size= 5964544kB time=02:03:02.31 bitrate=6618.7kbits/s speed=99.7x    frame=445551 fps=5976 q=-1.0 size= 6004736kB time=02:03:45.94 bitrate=6624.2kbits/s speed=99.6x    frame=448356 fps=5974 q=-1.0 size= 6042624kB time=02:04:32.68 bitrate=6624.3kbits/s speed=99.6x    frame=452699 fps=5992 q=-1.0 size= 6084352kB time=02:05:45.06 bitrate=6606.0kbits/s speed=99.9x    frame=455369 fps=5987 q=-1.0 size= 6124544kB time=02:06:29.56 bitrate=6610.7kbits/s speed=99.8x    frame=459437 fps=6001 q=-1.0 size= 6164992kB time=02:07:37.36 bitrate=6595.4kbits/s speed= 100x    frame=463179 fps=6011 q=-1.0 size= 6206208kB time=02:08:39.74 bitrate=6585.9kbits/s speed= 100x    frame=466329 fps=6013 q=-1.0 size= 6246656kB time=02:09:32.23 bitrate=6584.0kbits/s speed= 100x    frame=470529 fps=6028 q=-1.0 size= 6285056kB time=02:10:42.24 bitrate=6565.4kbits/s speed= 100x    frame=474117 fps=6035 q=-1.0 size= 6325248kB time=02:11:42.03 bitrate=6557.3kbits/s speed= 101x    frame=478920 fps=6058 q=-1.0 size= 6361088kB time=02:13:02.08 bitrate=6528.4kbits/s speed= 101x    frame=482994 fps=6071 q=-1.0 size= 6402560kB time=02:14:09.98 bitrate=6515.5kbits/s speed= 101x    frame=486509 fps=6077 q=-1.0 size= 6444544kB time=02:15:08.56 bitrate=6510.9kbits/s speed= 101x    frame=489142 fps=6072 q=-1.0 size= 6481152kB time=02:15:52.44 bitrate=6512.6kbits/s speed= 101x    frame=494740 fps=6103 q=-1.0 size= 6519808kB time=02:17:25.76 bitrate=6477.3kbits/s speed= 102x    frame=499595 fps=6125 q=-1.0 size= 6559488kB time=02:18:46.67 bitrate=6453.4kbits/s speed= 102x    frame=505224 fps=6157 q=-1.0 size= 6595584kB time=02:20:20.48 bitrate=6416.6kbits/s speed= 103x    frame=510994 fps=6189 q=-1.0 size= 6633472kB time=02:21:56.64 bitrate=6380.6kbits/s speed= 103x    frame=516219 fps=6215 q=-1.0 size= 6667008kB time=02:23:23.73 bitrate=6348.0kbits/s speed= 104x    frame=522117 fps=6248 q=-1.0 size= 6703104kB time=02:25:02.03 bitrate=6310.2kbits/s speed= 104x    frame=526840 fps=6267 q=-1.0 size= 6736640kB time=02:26:20.75 bitrate=6284.9kbits/s speed= 104x    frame=531509 fps=6285 q=-1.0 size= 6768896kB time=02:27:38.56 bitrate=6259.6kbits/s speed= 105x    frame=536745 fps=6310 q=-1.0 size= 6802688kB time=02:29:05.83 bitrate=6229.4kbits/s speed= 105x    frame=541976 fps=6334 q=-1.0 size= 6837248kB time=02:30:33.02 bitrate=6200.7kbits/s speed= 106x    frame=545373 fps=6337 q=-1.0 size= 6872576kB time=02:31:29.64 bitrate=6193.9kbits/s speed= 106x    frame=548385 fps=6335 q=-1.0 size= 6913792kB time=02:32:19.83 bitrate=6196.8kbits/s speed= 106x    frame=551242 fps=6331 q=-1.0 size= 6952448kB time=02:33:07.44 bitrate=6199.2kbits/s speed= 106x    frame=555098 fps=6339 q=-1.0 size= 6992640kB time=02:34:11.71 bitrate=6191.7kbits/s speed= 106x    frame=557652 fps=6332 q=-1.0 size= 7034112kB time=02:34:54.28 bitrate=6199.9kbits/s speed= 106x    frame=559826 fps=6321 q=-1.0 size= 7069952kB time=02:35:30.51 bitrate=6207.3kbits/s speed= 105x    frame=562830 fps=6319 q=-1.0 size= 7110656kB time=02:36:20.58 bitrate=6209.7kbits/s speed= 105x    frame=566711 fps=6327 q=-1.0 size= 7152128kB time=02:37:25.26 bitrate=6203.1kbits/s speed= 105x    frame=569293 fps=6321 q=-1.0 size= 7189248kB time=02:38:08.30 bitrate=6207.0kbits/s speed= 105x    frame=572378 fps=6320 q=-1.0 size= 7227904kB time=02:38:59.71 bitrate=6206.8kbits/s speed= 105x    frame=575310 fps=6317 q=-1.0 size= 7267328kB time=02:39:48.58 bitrate=6208.8kbits/s speed= 105x    frame=579703 fps=6331 q=-1.0 size= 7304448kB time=02:41:01.79 bitrate=6193.3kbits/s speed= 106x    frame=586502 fps=6370 q=-1.0 size= 7339520kB time=02:42:55.12 bitrate=6150.9kbits/s speed= 106x    frame=592008 fps=6395 q=-1.0 size= 7376384kB time=02:44:26.88 bitrate=6124.3kbits/s speed= 107x    frame=597663 fps=6422 q=-1.0 size= 7415552kB time=02:46:01.13 bitrate=6098.5kbits/s speed= 107x    frame=601533 fps=6429 q=-1.0 size= 7453952kB time=02:47:05.64 bitrate=6090.7kbits/s speed= 107x    frame=605595 fps=6438 q=-1.0 size= 7495168kB time=02:48:13.33 bitrate=6083.3kbits/s speed= 107x    frame=610319 fps=6454 q=-1.0 size= 7534592kB time=02:49:32.07 bitrate=6067.9kbits/s speed= 108x    frame=614612 fps=6465 q=-1.0 size= 7573504kB time=02:50:43.62 bitrate=6056.7kbits/s speed= 108x    frame=617568 fps=6462 q=-1.0 size= 7615744kB time=02:51:32.88 bitrate=6061.3kbits/s speed= 108x    frame=619965 fps=6453 q=-1.0 size= 7654912kB time=02:52:12.83 bitrate=6068.9kbits/s speed= 108x    frame=624611 fps=6468 q=-1.0 size= 7694592kB time=02:53:30.26 bitrate=6055.0kbits/s speed= 108x    frame=627747 fps=6467 q=-1.0 size= 7730944kB time=02:54:22.53 bitrate=6053.2kbits/s speed= 108x    frame=633027 fps=6488 q=-1.0 size= 7765248kB time=02:55:50.53 bitrate=6029.4kbits/s speed= 108x    frame=639258 fps=6518 q=-1.0 size= 7805440kB time=02:57:34.38 bitrate=6001.5kbits/s speed= 109x    frame=643459 fps=6528 q=-1.0 size= 7842048kB time=02:58:44.39 bitrate=5990.3kbits/s speed= 109x    frame=648552 fps=6546 q=-1.0 size= 7877632kB time=03:00:09.28 bitrate=5970.2kbits/s speed= 109x    frame=654944 fps=6578 q=-1.0 size= 7918080kB time=03:01:55.81 bitrate=5942.3kbits/s speed= 110x    frame=662476 fps=6620 q=-1.0 size= 7954944kB time=03:04:01.34 bitrate=5902.1kbits/s speed= 110x    frame=668509 fps=6647 q=-1.0 size= 7993088kB time=03:05:41.89 bitrate=5876.9kbits/s speed= 111x    frame=672680 fps=6655 q=-1.0 size= 8032768kB time=03:06:51.41 bitrate=5869.4kbits/s speed= 111x    frame=676932 fps=6664 q=-1.0 size= 8069376kB time=03:08:02.28 bitrate=5859.1kbits/s speed= 111x    frame=679799 fps=6660 q=-1.0 size= 8108032kB time=03:08:50.06 bitrate=5862.4kbits/s speed= 111x    frame=683393 fps=6662 q=-1.0 size= 8148992kB time=03:09:49.96 bitrate=5861.0kbits/s speed= 111x    frame=685600 fps=6651 q=-1.0 size= 8184576kB time=03:10:26.74 bitrate=5867.6kbits/s speed= 111x    frame=688311 fps=6646 q=-1.0 size= 8225024kB time=03:11:11.93 bitrate=5873.4kbits/s speed= 111x    frame=691832 fps=6647 q=-1.0 size= 8265216kB time=03:12:10.61 bitrate=5872.1kbits/s speed= 111x    frame=694733 fps=6643 q=-1.0 size= 8303616kB time=03:12:58.96 bitrate=5874.7kbits/s speed= 111x    frame=698518 fps=6648 q=-1.0 size= 8344576kB time=03:14:02.04 bitrate=5871.7kbits/s speed= 111x    frame=701042 fps=6640 q=-1.0 size= 8382208kB time=03:14:44.11 bitrate=5877.0kbits/s speed= 111x    frame=703731 fps=6634 q=-1.0 size= 8418304kB time=03:15:28.94 bitrate=5879.7kbits/s speed= 111x    frame=706812 fps=6632 q=-1.0 size= 8458752kB time=03:16:20.28 bitrate=5882.2kbits/s speed= 111x    frame=709736 fps=6628 q=-1.0 size= 8495360kB time=03:17:09.01 bitrate=5883.3kbits/s speed= 110x    frame=713304 fps=6631 q=-1.0 size= 8535296kB time=03:18:08.49 bitrate=5881.4kbits/s speed= 111x    frame=716105 fps=6626 q=-1.0 size= 8575488kB time=03:18:55.16 bitrate=5886.0kbits/s speed= 110x    frame=718685 fps=6619 q=-1.0 size= 8614912kB time=03:19:38.17 bitrate=5891.8kbits/s speed= 110x    frame=721915 fps=6618 q=-1.0 size= 8656128kB time=03:20:31.99 bitrate=5893.5kbits/s speed= 110x    frame=725790 fps=6623 q=-1.0 size= 8693248kB time=03:21:36.58 bitrate=5887.2kbits/s speed= 110x    frame=728635 fps=6619 q=-1.0 size= 8733696kB time=03:22:23.99 bitrate=5891.5kbits/s speed= 110x    frame=731223 fps=6613 q=-1.0 size= 8772096kB time=03:23:07.13 bitrate=5896.5kbits/s speed= 110x    frame=735191 fps=6619 q=-1.0 size= 8808960kB time=03:24:13.26 bitrate=5889.3kbits/s speed= 110x    frame=737953 fps=6614 q=-1.0 size= 8847872kB time=03:24:59.30 bitrate=5893.2kbits/s speed= 110x    frame=741064 fps=6612 q=-1.0 size= 8888832kB time=03:25:51.14 bitrate=5895.6kbits/s speed= 110x    frame=743716 fps=6606 q=-1.0 size= 8928512kB time=03:26:35.34 bitrate=5900.8kbits/s speed= 110x    frame=746225 fps=6599 q=-1.0 size= 8969984kB time=03:27:17.16 bitrate=5908.3kbits/s speed= 110x    frame=748792 fps=6592 q=-1.0 size= 9008640kB time=03:27:59.95 bitrate=5913.4kbits/s speed= 110x    frame=751240 fps=6585 q=-1.0 size= 9047808kB time=03:28:40.74 bitrate=5919.7kbits/s speed= 110x    frame=754227 fps=6582 q=-1.0 size= 9088768kB time=03:29:30.53 bitrate=5923.0kbits/s speed= 110x    frame=756704 fps=6575 q=-1.0 size= 9128704kB time=03:30:11.81 bitrate=5929.5kbits/s speed= 110x    frame=759455 fps=6571 q=-1.0 size= 9168640kB time=03:30:57.66 bitrate=5933.9kbits/s speed= 110x    frame=762241 fps=6566 q=-1.0 size= 9209344kB time=03:31:44.10 bitrate=5938.5kbits/s speed= 109x    frame=764786 fps=6560 q=-1.0 size= 9247744kB time=03:32:26.51 bitrate=5943.4kbits/s speed= 109x    frame=771823 fps=6592 q=-1.0 size= 9285888kB time=03:34:23.79 bitrate=5913.5kbits/s speed= 110x    frame=778462 fps=6620 q=-1.0 size= 9323008kB time=03:36:14.44 bitrate=5886.5kbits/s speed= 110x    frame=782905 fps=6630 q=-1.0 size= 9361664kB time=03:37:28.49 bitrate=5877.4kbits/s speed= 110x    frame=787060 fps=6637 q=-1.0 size= 9399808kB time=03:38:37.76 bitrate=5870.1kbits/s speed= 111x    frame=792112 fps=6652 q=-1.0 size= 9435904kB time=03:40:01.94 bitrate=5855.1kbits/s speed= 111x    frame=796916 fps=6664 q=-1.0 size= 9475584kB time=03:41:22.02 bitrate=5844.3kbits/s speed= 111x    frame=800841 fps=6669 q=-1.0 size= 9513216kB time=03:42:27.43 bitrate=5838.7kbits/s speed= 111x    frame=804233 fps=6669 q=-1.0 size= 9550592kB time=03:43:23.97 bitrate=5837.0kbits/s speed= 111x    frame=807279 fps=6667 q=-1.0 size= 9591040kB time=03:44:14.73 bitrate=5839.6kbits/s speed= 111x    frame=810103 fps=6663 q=-1.0 size= 9628928kB time=03:45:01.79 bitrate=5842.2kbits/s speed= 111x    frame=813009 fps=6659 q=-1.0 size= 9668864kB time=03:45:50.23 bitrate=5845.5kbits/s speed= 111x    frame=816699 fps=6662 q=-1.0 size= 9708288kB time=03:46:51.73 bitrate=5842.8kbits/s speed= 111x    frame=820407 fps=6665 q=-1.0 size= 9744640kB time=03:47:53.53 bitrate=5838.1kbits/s speed= 111x    frame=824809 fps=6674 q=-1.0 size= 9783808kB time=03:49:06.89 bitrate=5830.3kbits/s speed= 111x    frame=827423 fps=6668 q=-1.0 size= 9823744kB time=03:49:50.46 bitrate=5835.6kbits/s speed= 111x    frame=832580 fps=6683 q=-1.0 size= 9861376kB time=03:51:16.41 bitrate=5821.7kbits/s speed= 111x    frame=837234 fps=6693 q=-1.0 size= 9901824kB time=03:52:33.98 bitrate=5813.1kbits/s speed= 112x    frame=839972 fps=6688 q=-1.0 size= 9937920kB time=03:53:19.61 bitrate=5815.3kbits/s speed= 111x    frame=843808 fps=6692 q=-1.0 size= 9979904kB time=03:54:23.54 bitrate=5813.3kbits/s speed= 112x    frame=848139 fps=6700 q=-1.0 size=10019328kB time=03:55:35.73 bitrate=5806.4kbits/s speed= 112x    frame=851618 fps=6701 q=-1.0 size=10056192kB time=03:56:33.71 bitrate=5804.0kbits/s speed= 112x    frame=854960 fps=6701 q=-1.0 size=10097920kB time=03:57:29.41 bitrate=5805.3kbits/s speed= 112x    frame=861263 fps=6724 q=-1.0 size=10137344kB time=03:59:14.47 bitrate=5785.3kbits/s speed= 112x    frame=864777 fps=6725 q=-1.0 size=10177024kB time=04:00:13.03 bitrate=5784.4kbits/s speed= 112x    frame=868699 fps=6729 q=-1.0 size=10219008kB time=04:01:18.39 bitrate=5782.0kbits/s speed= 112x    frame=873283 fps=6739 q=-1.0 size=10258688kB time=04:02:34.79 bitrate=5774.0kbits/s speed= 112x    frame=877402 fps=6744 q=-1.0 size=10298368kB time=04:03:43.44 bitrate=5769.1kbits/s speed= 112x    frame=881376 fps=6749 q=-1.0 size=10337280kB time=04:04:49.68 bitrate=5764.8kbits/s speed= 112x    frame=885285 fps=6753 q=-1.0 size=10375680kB time=04:05:54.83 bitrate=5760.7kbits/s speed= 113x    frame=889489 fps=6759 q=-1.0 size=10417408kB time=04:07:04.89 bitrate=5756.5kbits/s speed= 113x    frame=894117 fps=6769 q=-1.0 size=10458624kB time=04:08:22.03 bitrate=5749.4kbits/s speed= 113x    frame=897626 fps=6770 q=-1.0 size=10495744kB time=04:09:20.51 bitrate=5747.2kbits/s speed= 113x    frame=901928 fps=6776 q=-1.0 size=10538240kB time=04:10:32.21 bitrate=5743.0kbits/s speed= 113x    frame=905219 fps=6776 q=-1.0 size=10577920kB time=04:11:27.06 bitrate=5743.6kbits/s speed= 113x    frame=907923 fps=6771 q=-1.0 size=10613504kB time=04:12:12.13 bitrate=5745.8kbits/s speed= 113x    frame=910759 fps=6766 q=-1.0 size=10652416kB time=04:12:59.39 bitrate=5748.9kbits/s speed= 113x    frame=913934 fps=6765 q=-1.0 size=10694144kB time=04:13:52.31 bitrate=5751.4kbits/s speed= 113x    frame=916536 fps=6759 q=-1.0 size=10734336kB time=04:14:35.68 bitrate=5756.6kbits/s speed= 113x    frame=919429 fps=6756 q=-1.0 size=10776832kB time=04:15:23.90 bitrate=5761.2kbits/s speed= 113x    frame=922400 fps=6753 q=-1.0 size=10818048kB time=04:16:13.41 bitrate=5764.6kbits/s speed= 113x    frame=925376 fps=6750 q=-1.0 size=10860800kB time=04:17:03.01 bitrate=5768.8kbits/s speed= 112x    frame=929390 fps=6754 q=-1.0 size=10901248kB time=04:18:09.92 bitrate=5765.2kbits/s speed= 113x    frame=932333 fps=6751 q=-1.0 size=10942464kB time=04:18:58.96 bitrate=5768.8kbits/s speed= 113x    frame=934852 fps=6745 q=-1.0 size=10980608kB time=04:19:40.95 bitrate=5773.3kbits/s speed= 112x    frame=937634 fps=6741 q=-1.0 size=11021824kB time=04:20:27.31 bitrate=5777.8kbits/s speed= 112x    frame=941558 fps=6745 q=-1.0 size=11064832kB time=04:21:32.71 bitrate=5776.1kbits/s speed= 112x    frame=944489 fps=6741 q=-1.0 size=11107584kB time=04:22:21.57 bitrate=5780.4kbits/s speed= 112x    frame=947355 fps=6738 q=-1.0 size=11145216kB time=04:23:09.33 bitrate=5782.5kbits/s speed= 112x    frame=950707 fps=6738 q=-1.0 size=11187968kB time=04:24:05.19 bitrate=5784.2kbits/s speed= 112x    frame=954326 fps=6739 q=-1.0 size=11229952kB time=04:25:05.51 bitrate=5783.9kbits/s speed= 112x    frame=957075 fps=6735 q=-1.0 size=11268864kB time=04:25:51.34 bitrate=5787.3kbits/s speed= 112x    frame=961988 fps=6746 q=-1.0 size=11311616kB time=04:27:13.21 bitrate=5779.5kbits/s speed= 112x    frame=965460 fps=6747 q=-1.0 size=11349760kB time=04:28:11.08 bitrate=5778.2kbits/s speed= 112x    frame=967802 fps=6739 q=-1.0 size=11386880kB time=04:28:50.11 bitrate=5783.1kbits/s speed= 112x    frame=970441 fps=6734 q=-1.0 size=11428864kB time=04:29:34.09 bitrate=5788.6kbits/s speed= 112x    frame=973898 fps=6735 q=-1.0 size=11469568kB time=04:30:31.71 bitrate=5788.6kbits/s speed= 112x    frame=977114 fps=6734 q=-1.0 size=11508736kB time=04:31:25.31 bitrate=5789.2kbits/s speed= 112x    frame=979896 fps=6730 q=-1.0 size=11550464kB time=04:32:11.69 bitrate=5793.7kbits/s speed= 112x    frame=982157 fps=6722 q=-1.0 size=11583744kB time=04:32:49.36 bitrate=5797.1kbits/s speed= 112x    frame=984927 fps=6718 q=-1.0 size=11618816kB time=04:33:35.53 bitrate=5798.2kbits/s speed= 112x    frame=987579 fps=6713 q=-1.0 size=11655424kB time=04:34:19.73 bitrate=5800.9kbits/s speed= 112x    frame=990433 fps=6710 q=-1.0 size=11696640kB time=04:35:07.30 bitrate=5804.6kbits/s speed= 112x    frame=996281 fps=6727 q=-1.0 size=11735552kB time=04:36:44.76 bitrate=5789.8kbits/s speed= 112x    frame=999452 fps=6725 q=-1.0 size=11776256kB time=04:37:37.62 bitrate=5791.4kbits/s speed= 112x    frame=1003438 fps=6730 q=-1.0 size=11814144kB time=04:38:44.05 bitrate=5787.0kbits/s speed= 112x    frame=1006076 fps=6725 q=-1.0 size=11852032kB time=04:39:28.02 bitrate=5790.3kbits/s speed= 112x    frame=1011485 fps=6738 q=-1.0 size=11889664kB time=04:40:58.17 bitrate=5777.6kbits/s speed= 112x    frame=1014712 fps=6737 q=-1.0 size=11927552kB time=04:41:51.94 bitrate=5777.6kbits/s speed= 112x    frame=1017444 fps=6733 q=-1.0 size=11966976kB time=04:42:37.48 bitrate=5781.1kbits/s speed= 112x    frame=1020005 fps=6728 q=-1.0 size=12005632kB time=04:43:20.17 bitrate=5785.2kbits/s speed= 112x    frame=1023147 fps=6726 q=-1.0 size=12044032kB time=04:44:12.53 bitrate=5785.9kbits/s speed= 112x    frame=1026528 fps=6726 q=-1.0 size=12084224kB time=04:45:08.88 bitrate=5786.1kbits/s speed= 112x    frame=1030211 fps=6729 q=-1.0 size=12123648kB time=04:46:10.26 bitrate=5784.2kbits/s speed= 112x    frame=1034066 fps=6732 q=-1.0 size=12156672kB time=04:47:14.51 bitrate=5778.4kbits/s speed= 112x    frame=1037379 fps=6731 q=-1.0 size=12197120kB time=04:48:09.73 bitrate=5779.1kbits/s speed= 112x    frame=1040233 fps=6728 q=-1.0 size=12234240kB time=04:48:57.30 bitrate=5780.8kbits/s speed= 112x    frame=1044946 fps=6737 q=-1.0 size=12271360kB time=04:50:15.84 bitrate=5772.2kbits/s speed= 112x    frame=1048270 fps=6736 q=-1.0 size=12308992kB time=04:51:11.24 bitrate=5771.5kbits/s speed= 112x    frame=1051406 fps=6735 q=-1.0 size=12348160kB time=04:52:03.52 bitrate=5772.6kbits/s speed= 112x    frame=1054212 fps=6731 q=-1.0 size=12389376kB time=04:52:50.28 bitrate=5776.4kbits/s speed= 112x    frame=1057509 fps=6731 q=-1.0 size=12426752kB time=04:53:45.23 bitrate=5775.8kbits/s speed= 112x    frame=1060051 fps=6726 q=-1.0 size=12462592kB time=04:54:27.60 bitrate=5778.6kbits/s speed= 112x    frame=1063173 fps=6724 q=-1.0 size=12501248kB time=04:55:19.63 bitrate=5779.5kbits/s speed= 112x    frame=1066259 fps=6722 q=-1.0 size=12539136kB time=04:56:11.06 bitrate=5780.2kbits/s speed= 112x    frame=1069997 fps=6725 q=-1.0 size=12576256kB time=04:57:13.36 bitrate=5777.1kbits/s speed= 112x    frame=1073032 fps=6723 q=-1.0 size=12616960kB time=04:58:03.94 bitrate=5779.4kbits/s speed= 112x    frame=1076186 fps=6721 q=-1.0 size=12654080kB time=04:58:56.51 bitrate=5779.4kbits/s speed= 112x    frame=1079965 fps=6724 q=-1.0 size=12695040kB time=04:59:59.51 bitrate=5777.8kbits/s speed= 112x    frame=1083583 fps=6726 q=-1.0 size=12736768kB time=05:00:59.79 bitrate=5777.5kbits/s speed= 112x    frame=1086074 fps=6720 q=-1.0 size=12774656kB time=05:01:41.31 bitrate=5781.3kbits/s speed= 112x    frame=1088827 fps=6716 q=-1.0 size=12816384kB time=05:02:27.19 bitrate=5785.6kbits/s speed= 112x    frame=1093010 fps=6721 q=-1.0 size=12858112kB time=05:03:36.91 bitrate=5782.2kbits/s speed= 112x    frame=1096129 fps=6720 q=-1.0 size=12896512kB time=05:04:28.90 bitrate=5783.0kbits/s speed= 112x    frame=1099332 fps=6719 q=-1.0 size=12938240kB time=05:05:22.28 bitrate=5784.8kbits/s speed= 112x    frame=1102058 fps=6715 q=-1.0 size=12978688kB time=05:06:07.71 bitrate=5788.5kbits/s speed= 112x    frame=1104941 fps=6712 q=-1.0 size=13017856kB time=05:06:55.76 bitrate=5790.8kbits/s speed= 112x    frame=1107964 fps=6710 q=-1.0 size=13059840kB time=05:07:46.15 bitrate=5793.6kbits/s speed= 112x    frame=1111000 fps=6708 q=-1.0 size=13100800kB time=05:08:36.74 bitrate=5795.9kbits/s speed= 112x    frame=1113759 fps=6705 q=-1.0 size=13138944kB time=05:09:22.73 bitrate=5798.4kbits/s speed= 112x    frame=1116870 fps=6703 q=-1.0 size=13179904kB time=05:10:14.59 bitrate=5800.3kbits/s speed= 112x    frame=1119634 fps=6700 q=-1.0 size=13222400kB time=05:11:00.64 bitrate=5804.6kbits/s speed= 112x    frame=1122099 fps=6694 q=-1.0 size=13261824kB time=05:11:41.74 bitrate=5809.1kbits/s speed= 112x    frame=1124754 fps=6690 q=-1.0 size=13302272kB time=05:12:25.98 bitrate=5813.1kbits/s speed= 112x    frame=1127562 fps=6687 q=-1.0 size=13344768kB time=05:13:12.79 bitrate=5817.1kbits/s speed= 111x    frame=1129912 fps=6681 q=-1.0 size=13381632kB time=05:13:51.94 bitrate=5821.1kbits/s speed= 111x    frame=1132675 fps=6678 q=-1.0 size=13424640kB time=05:14:37.99 bitrate=5825.5kbits/s speed= 111x    frame=1135813 fps=6676 q=-1.0 size=13463808kB time=05:15:30.29 bitrate=5826.4kbits/s speed= 111x    frame=1138917 fps=6675 q=-1.0 size=13502720kB time=05:16:22.03 bitrate=5827.3kbits/s speed= 111x    frame=1143822 fps=6684 q=-1.0 size=13544704kB time=05:17:43.78 bitrate=5820.4kbits/s speed= 111x    frame=1146269 fps=6679 q=-1.0 size=13585408kB time=05:18:24.57 bitrate=5825.4kbits/s speed= 111x    frame=1148838 fps=6674 q=-1.0 size=13627904kB time=05:19:07.38 bitrate=5830.6kbits/s speed= 111x    frame=1151350 fps=6670 q=-1.0 size=13669376kB time=05:19:49.24 bitrate=5835.5kbits/s speed= 111x    frame=1153615 fps=6663 q=-1.0 size=13707008kB time=05:20:26.99 bitrate=5840.1kbits/s speed= 111x    frame=1156116 fps=6659 q=-1.0 size=13748736kB time=05:21:08.68 bitrate=5845.2kbits/s speed= 111x    frame=1158677 fps=6654 q=-1.0 size=13790976kB time=05:21:51.36 bitrate=5850.2kbits/s speed= 111x    frame=1160896 fps=6648 q=-1.0 size=13827840kB time=05:22:28.34 bitrate=5854.6kbits/s speed= 111x    frame=1163456 fps=6643 q=-1.0 size=13870080kB time=05:23:11.01 bitrate=5859.6kbits/s speed= 111x    frame=1165978 fps=6639 q=-1.0 size=13910784kB time=05:23:53.04 bitrate=5864.1kbits/s speed= 111x    frame=1168302 fps=6633 q=-1.0 size=13949440kB time=05:24:31.78 bitrate=5868.7kbits/s speed= 111x    frame=1170959 fps=6629 q=-1.0 size=13991424kB time=05:25:16.06 bitrate=5873.0kbits/s speed= 110x    frame=1173240 fps=6624 q=-1.0 size=14029056kB time=05:25:54.09 bitrate=5877.3kbits/s speed= 110x    frame=1175752 fps=6619 q=-1.0 size=14070784kB time=05:26:35.94 bitrate=5882.2kbits/s speed= 110x    frame=1178283 fps=6615 q=-1.0 size=14113024kB time=05:27:18.13 bitrate=5887.2kbits/s speed= 110x    frame=1180590 fps=6609 q=-1.0 size=14150912kB time=05:27:56.58 bitrate=5891.5kbits/s speed= 110x    frame=1183191 fps=6605 q=-1.0 size=14193920kB time=05:28:39.93 bitrate=5896.4kbits/s speed= 110x    frame=1185741 fps=6601 q=-1.0 size=14236160kB time=05:29:22.43 bitrate=5901.2kbits/s speed= 110x    frame=1188073 fps=6595 q=-1.0 size=14275072kB time=05:30:01.29 bitrate=5905.7kbits/s speed= 110x    frame=1190611 fps=6591 q=-1.0 size=14317056kB time=05:30:43.60 bitrate=5910.5kbits/s speed= 110x    frame=1192945 fps=6586 q=-1.0 size=14355456kB time=05:31:22.49 bitrate=5914.7kbits/s speed= 110x    frame=1195342 fps=6581 q=-1.0 size=14395392kB time=05:32:02.44 bitrate=5919.3kbits/s speed= 110x    frame=1198003 fps=6577 q=-1.0 size=14438144kB time=05:32:46.79 bitrate=5923.7kbits/s speed= 110x    frame=1200305 fps=6572 q=-1.0 size=14476288kB time=05:33:25.16 bitrate=5928.0kbits/s speed= 110x    frame=1202628 fps=6567 q=-1.0 size=14514688kB time=05:34:03.88 bitrate=5932.2kbits/s speed= 109x    frame=1205057 fps=6562 q=-1.0 size=14555136kB time=05:34:44.37 bitrate=5936.7kbits/s speed= 109x    frame=1207281 fps=6556 q=-1.0 size=14592000kB time=05:35:21.43 bitrate=5940.8kbits/s speed= 109x    frame=1209852 fps=6553 q=-1.0 size=14634496kB time=05:36:04.29 bitrate=5945.5kbits/s speed= 109x    frame=1212320 fps=6548 q=-1.0 size=14675456kB time=05:36:45.41 bitrate=5950.0kbits/s speed= 109x    frame=1214680 fps=6543 q=-1.0 size=14714624kB time=05:37:24.75 bitrate=5954.2kbits/s speed= 109x    frame=1217343 fps=6540 q=-1.0 size=14758656kB time=05:38:09.13 bitrate=5959.0kbits/s speed= 109x    frame=1219734 fps=6535 q=-1.0 size=14798080kB time=05:38:48.98 bitrate=5963.2kbits/s speed= 109x    frame=1222237 fps=6531 q=-1.0 size=14839552kB time=05:39:30.71 bitrate=5967.7kbits/s speed= 109x    frame=1224831 fps=6528 q=-1.0 size=14882560kB time=05:40:13.93 bitrate=5972.3kbits/s speed= 109x    frame=1227123 fps=6522 q=-1.0 size=14920448kB time=05:40:52.14 bitrate=5976.3kbits/s speed= 109x    frame=1229707 fps=6519 q=-1.0 size=14963200kB time=05:41:35.21 bitrate=5980.8kbits/s speed= 109x    frame=1232402 fps=6516 q=-1.0 size=15006720kB time=05:42:20.11 bitrate=5985.1kbits/s speed= 109x    frame=1234629 fps=6510 q=-1.0 size=15043584kB time=05:42:57.23 bitrate=5989.0kbits/s speed= 109x    frame=1237157 fps=6507 q=-1.0 size=15085568kB time=05:43:39.36 bitrate=5993.4kbits/s speed= 108x    frame=1239450 fps=6501 q=-1.0 size=15123456kB time=05:44:17.58 bitrate=5997.4kbits/s speed= 108x    frame=1241692 fps=6496 q=-1.0 size=15160576kB time=05:44:54.95 bitrate=6001.2kbits/s speed= 108x    frame=1244184 fps=6492 q=-1.0 size=15202048kB time=05:45:36.48 bitrate=6005.6kbits/s speed= 108x    frame=1246479 fps=6487 q=-1.0 size=15239936kB time=05:46:14.74 bitrate=6009.5kbits/s speed= 108x    frame=1248967 fps=6483 q=-1.0 size=15281152kB time=05:46:56.19 bitrate=6013.7kbits/s speed= 108x    frame=1251446 fps=6479 q=-1.0 size=15322112kB time=05:47:37.51 bitrate=6017.9kbits/s speed= 108x    frame=1253760 fps=6474 q=-1.0 size=15360768kB time=05:48:16.08 bitrate=6022.0kbits/s speed= 108x    frame=1256375 fps=6471 q=-1.0 size=15403008kB time=05:48:59.66 bitrate=6026.0kbits/s speed= 108x    frame=1258842 fps=6467 q=-1.0 size=15443456kB time=05:49:40.78 bitrate=6029.9kbits/s speed= 108x    frame=1261091 fps=6462 q=-1.0 size=15480832kB time=05:50:18.26 bitrate=6033.8kbits/s speed= 108x    frame=1263547 fps=6458 q=-1.0 size=15521536kB time=05:50:59.20 bitrate=6037.9kbits/s speed= 108x    frame=1265887 fps=6454 q=-1.0 size=15559168kB time=05:51:38.19 bitrate=6041.3kbits/s speed= 108x    frame=1268260 fps=6449 q=-1.0 size=15598592kB time=05:52:17.74 bitrate=6045.3kbits/s speed= 107x    frame=1270779 fps=6446 q=-1.0 size=15640320kB time=05:52:59.73 bitrate=6049.4kbits/s speed= 107x    frame=1272965 fps=6440 q=-1.0 size=15676416kB time=05:53:36.16 bitrate=6053.0kbits/s speed= 107x    frame=1275371 fps=6436 q=-1.0 size=15716352kB time=05:54:16.26 bitrate=6057.0kbits/s speed= 107x    frame=1277842 fps=6432 q=-1.0 size=15757312kB time=05:54:57.44 bitrate=6061.0kbits/s speed= 107x    frame=1280118 fps=6428 q=-1.0 size=15794688kB time=05:55:35.38 bitrate=6064.6kbits/s speed= 107x    frame=1282584 fps=6424 q=-1.0 size=15835648kB time=05:56:16.49 bitrate=6068.6kbits/s speed= 107x    frame=1284991 fps=6420 q=-1.0 size=15875584kB time=05:56:56.59 bitrate=6072.5kbits/s speed= 107x    frame=1287443 fps=6416 q=-1.0 size=15916288kB time=05:57:37.46 bitrate=6076.5kbits/s speed= 107x    frame=1289955 fps=6413 q=-1.0 size=15957760kB time=05:58:19.33 bitrate=6080.5kbits/s speed= 107x    frame=1292207 fps=6408 q=-1.0 size=15995136kB time=05:58:56.87 bitrate=6084.1kbits/s speed= 107x    frame=1294493 fps=6403 q=-1.0 size=16033024kB time=05:59:34.97 bitrate=6087.7kbits/s speed= 107x    frame=1296967 fps=6400 q=-1.0 size=16073984kB time=06:00:16.19 bitrate=6091.6kbits/s speed= 107x    frame=1299258 fps=6395 q=-1.0 size=16110848kB time=06:00:54.38 bitrate=6094.8kbits/s speed= 107x    frame=1301686 fps=6392 q=-1.0 size=16151040kB time=06:01:34.85 bitrate=6098.7kbits/s speed= 107x    frame=1304165 fps=6388 q=-1.0 size=16192000kB time=06:02:16.17 bitrate=6102.5kbits/s speed= 106x    frame=1306319 fps=6383 q=-1.0 size=16227840kB time=06:02:52.06 bitrate=6105.9kbits/s speed= 106x    frame=1308822 fps=6380 q=-1.0 size=16269312kB time=06:03:33.78 bitrate=6109.8kbits/s speed= 106x    frame=1311105 fps=6375 q=-1.0 size=16306944kB time=06:04:11.84 bitrate=6113.3kbits/s speed= 106x    frame=1313350 fps=6371 q=-1.0 size=16344320kB time=06:04:49.24 bitrate=6116.8kbits/s speed= 106x    frame=1315787 fps=6367 q=-1.0 size=16384768kB time=06:05:29.86 bitrate=6120.6kbits/s speed= 106x    frame=1318065 fps=6363 q=-1.0 size=16422400kB time=06:06:07.83 bitrate=6124.1kbits/s speed= 106x    frame=1320580 fps=6359 q=-1.0 size=16462848kB time=06:06:49.74 bitrate=6127.5kbits/s speed= 106x    frame=1322990 fps=6356 q=-1.0 size=16502528kB time=06:07:29.92 bitrate=6131.0kbits/s speed= 106x    frame=1325344 fps=6352 q=-1.0 size=16541952kB time=06:08:09.14 bitrate=6134.8kbits/s speed= 106x    frame=1327789 fps=6348 q=-1.0 size=16582400kB time=06:08:49.90 bitrate=6138.4kbits/s speed= 106x    frame=1330349 fps=6345 q=-1.0 size=16621824kB time=06:09:32.56 bitrate=6141.2kbits/s speed= 106x    frame=1332603 fps=6341 q=-1.0 size=16659200kB time=06:10:10.13 bitrate=6144.6kbits/s speed= 106x    frame=1335019 fps=6337 q=-1.0 size=16699392kB time=06:10:50.39 bitrate=6148.3kbits/s speed= 106x    frame=1337347 fps=6333 q=-1.0 size=16737792kB time=06:11:29.19 bitrate=6151.7kbits/s speed= 106x    frame=1339716 fps=6329 q=-1.0 size=16776960kB time=06:12:08.68 bitrate=6155.2kbits/s speed= 105x    frame=1342162 fps=6326 q=-1.0 size=16817664kB time=06:12:49.44 bitrate=6158.9kbits/s speed= 105x    frame=1344413 fps=6322 q=-1.0 size=16855040kB time=06:13:26.97 bitrate=6162.2kbits/s speed= 105x    frame=1346940 fps=6319 q=-1.0 size=16896768kB time=06:14:09.08 bitrate=6165.9kbits/s speed= 105x    frame=1349370 fps=6315 q=-1.0 size=16936960kB time=06:14:49.58 bitrate=6169.4kbits/s speed= 105x    frame=1351739 fps=6312 q=-1.0 size=16976128kB time=06:15:29.06 bitrate=6172.8kbits/s speed= 105x    frame=1354235 fps=6309 q=-1.0 size=17017600kB time=06:16:10.66 bitrate=6176.5kbits/s speed= 105x    frame=1356596 fps=6305 q=-1.0 size=17056768kB time=06:16:50.02 bitrate=6180.0kbits/s speed= 105x    frame=1359013 fps=6301 q=-1.0 size=17096960kB time=06:17:30.29 bitrate=6183.5kbits/s speed= 105x    frame=1361459 fps=6298 q=-1.0 size=17137152kB time=06:18:11.07 bitrate=6186.9kbits/s speed= 105x    frame=1363705 fps=6294 q=-1.0 size=17174528kB time=06:18:48.49 bitrate=6190.2kbits/s speed= 105x    frame=1366225 fps=6291 q=-1.0 size=17216000kB time=06:19:30.49 bitrate=6193.7kbits/s speed= 105x    frame=1369253 fps=6294 q=-1.0 Lsize=17247964kB time=06:20:20.97 bitrate=6191.5kbits/s speed= 105x    
video:16832951kB audio:369168kB subtitle:0kB other streams:0kB global headers:0kB muxing overhead: 0.266512%
